<mxfile host="Electron" agent="Mozilla/5.0 (Windows NT 10.0; Win64; x64) AppleWebKit/537.36 (KHTML, like Gecko) draw.io/27.0.9 Chrome/134.0.6998.205 Electron/35.4.0 Safari/537.36" version="27.0.9">
  <diagram name="第 1 页" id="EhbQELco0rKqT1o21e_D">
    <mxGraphModel dx="868" dy="550" grid="0" gridSize="10" guides="1" tooltips="1" connect="1" arrows="1" fold="1" page="1" pageScale="1" pageWidth="827" pageHeight="1169" math="0" shadow="0">
      <root>
        <mxCell id="0" />
        <mxCell id="1" parent="0" />
        <mxCell id="-8UHgvC46Kcf6x7MxF1D-6" value="" style="edgeStyle=orthogonalEdgeStyle;rounded=0;orthogonalLoop=1;jettySize=auto;html=1;" edge="1" parent="1" source="-8UHgvC46Kcf6x7MxF1D-1" target="-8UHgvC46Kcf6x7MxF1D-5">
          <mxGeometry relative="1" as="geometry" />
        </mxCell>
        <mxCell id="-8UHgvC46Kcf6x7MxF1D-7" value="数据提取" style="edgeLabel;html=1;align=center;verticalAlign=middle;resizable=0;points=[];" vertex="1" connectable="0" parent="-8UHgvC46Kcf6x7MxF1D-6">
          <mxGeometry x="0.0206" y="-1" relative="1" as="geometry">
            <mxPoint as="offset" />
          </mxGeometry>
        </mxCell>
        <mxCell id="-8UHgvC46Kcf6x7MxF1D-1" value="原始数据" style="rounded=1;whiteSpace=wrap;html=1;fillColor=#dae8fc;strokeColor=none;" vertex="1" parent="1">
          <mxGeometry x="310" y="34" width="142" height="33" as="geometry" />
        </mxCell>
        <mxCell id="-8UHgvC46Kcf6x7MxF1D-5" value="数据集（90168，10）" style="rounded=1;whiteSpace=wrap;html=1;fillColor=#dae8fc;strokeColor=none;" vertex="1" parent="1">
          <mxGeometry x="310" y="124" width="142" height="33" as="geometry" />
        </mxCell>
      </root>
    </mxGraphModel>
  </diagram>
</mxfile>
